<svg width="53" height="52" viewBox="0 0 53 52" fill="none" xmlns="http://www.w3.org/2000/svg">
<g clip-path="url(#clip0_209_4435)">
<path d="M19.9332 46.0003C23.6132 46.0003 26.5998 43.0137 26.5998 39.3337V32.667H19.9332C16.2532 32.667 13.2665 35.6537 13.2665 39.3337C13.2665 43.0137 16.2532 46.0003 19.9332 46.0003Z" fill="#292929"/>
<path d="M13.2665 25.9997C13.2665 22.3197 16.2532 19.333 19.9332 19.333H26.5998V32.6663H19.9332C16.2532 32.6663 13.2665 29.6797 13.2665 25.9997Z" fill="#292929"/>
<path d="M13.2665 12.6667C13.2665 8.98667 16.2532 6 19.9332 6H26.5998V19.3333H19.9332C16.2532 19.3333 13.2665 16.3467 13.2665 12.6667Z" fill="#292929"/>
<path d="M26.5999 6H33.2665C36.9465 6 39.9332 8.98667 39.9332 12.6667C39.9332 16.3467 36.9465 19.3333 33.2665 19.3333H26.5999V6Z" fill="#292929"/>
<path d="M39.9332 25.9997C39.9332 29.6797 36.9465 32.6663 33.2665 32.6663C29.5865 32.6663 26.5999 29.6797 26.5999 25.9997C26.5999 22.3197 29.5865 19.333 33.2665 19.333C36.9465 19.333 39.9332 22.3197 39.9332 25.9997Z" fill="#292929"/>
</g>
<rect x="1.10001" y="0.5" width="51" height="51" rx="9.5" stroke="#E6E6E6"/>
<defs>
<clipPath id="clip0_209_4435">
<rect width="40" height="40" fill="white" transform="translate(6.60001 6)"/>
</clipPath>
</defs>
</svg>
