<svg width="53" height="53" viewBox="0 0 53 53" fill="none" xmlns="http://www.w3.org/2000/svg">
<path d="M42.3916 7.50535C36.5471 7.48895 14.9908 7.51655 10.0084 7.50535C8.45795 7.50535 7.19995 8.72495 7.19995 10.2269V42.7794C7.19995 44.2817 8.45795 45.5001 10.0084 45.5001H42.3916C43.9427 45.5001 45.2 44.2817 45.2 42.7789V10.2269C45.2 8.72495 43.9427 7.50535 42.3916 7.50535Z" fill="white"/>
<path d="M27.5811 39.302C27.5811 39.302 27.5811 29.7508 27.5811 29.7504C27.5255 27.9952 28.5747 26.3572 30.6859 26.2836C32.7431 26.2836 33.5663 27.852 33.5663 30.1516V39.3016H39.2519V29.494C39.2519 24.24 36.4471 21.7952 32.7059 21.7952C29.6387 21.7952 28.2915 23.5092 27.5431 24.6768L27.5811 22.1968H21.8955C21.9695 23.8016 21.8951 39.302 21.8951 39.302H27.5811ZM18.7479 31.8844V22.1964H13.0615V39.3016H18.7483C18.7471 37.5056 18.7503 33.6552 18.7479 31.8844ZM15.9059 19.8616C17.8883 19.8616 19.1227 18.548 19.1227 16.9068C19.1063 12.948 12.7211 12.992 12.7263 16.9064C12.7219 18.5604 13.9903 19.882 15.9059 19.8616Z" fill="black"/>
<rect x="0.699951" y="1" width="51" height="51" rx="9.5" stroke="white"/>
</svg>
