<svg width="53" height="52" viewBox="0 0 53 52" fill="none" xmlns="http://www.w3.org/2000/svg">
<path d="M42.3916 7.00535C36.5472 6.98895 14.9908 7.01655 10.0084 7.00535C8.45801 7.00535 7.20001 8.22495 7.20001 9.72695V42.2794C7.20001 43.7817 8.45801 45.0001 10.0084 45.0001H42.3916C43.9428 45.0001 45.2 43.7817 45.2 42.2789V9.72695C45.2 8.22495 43.9428 7.00535 42.3916 7.00535Z" fill="#292929"/>
<path d="M27.5812 38.802C27.5812 38.802 27.5812 29.2508 27.5812 29.2504C27.5256 27.4952 28.5748 25.8572 30.686 25.7836C32.7432 25.7836 33.5664 27.352 33.5664 29.6516V38.8016H39.252V28.994C39.252 23.74 36.4472 21.2952 32.706 21.2952C29.6388 21.2952 28.2916 23.0092 27.5432 24.1768L27.5812 21.6968H21.8956C21.9696 23.3016 21.8952 38.802 21.8952 38.802H27.5812ZM18.748 31.3844V21.6964H13.0616V38.8016H18.7484C18.7472 37.0056 18.7504 33.1552 18.748 31.3844ZM15.906 19.3616C17.8884 19.3616 19.1228 18.048 19.1228 16.4068C19.1064 12.448 12.7212 12.492 12.7264 16.4064C12.722 18.0604 13.9904 19.382 15.906 19.3616Z" fill="white"/>
<rect x="0.700012" y="0.5" width="51" height="51" rx="9.5" stroke="#E6E6E6"/>
</svg>
