<svg width="52" height="52" viewBox="0 0 52 52" fill="none" xmlns="http://www.w3.org/2000/svg">
<g clip-path="url(#clip0_209_4452)">
<path d="M27.25 26C27.25 31.8586 22.7641 36.625 17.25 36.625C11.7359 36.625 7.25 31.8586 7.25 26C7.25 20.1414 11.7359 15.375 17.25 15.375C22.7641 15.375 27.25 20.1414 27.25 26ZM34.75 16C33.8621 16 32.1876 16.4314 30.9494 19.3205C30.1759 21.1251 29.75 23.4974 29.75 26C29.75 28.5026 30.1759 30.8749 30.9494 32.6795C32.1876 35.5686 33.8621 36 34.75 36C35.6379 36 37.3124 35.5686 38.5506 32.6795C39.3241 30.8749 39.75 28.5026 39.75 26C39.75 23.4974 39.3241 21.1251 38.5506 19.3205C37.3124 16.4314 35.6379 16 34.75 16ZM43.5 16C43.1685 16 42.8506 16.1317 42.6161 16.3661C42.3817 16.6006 42.25 16.9185 42.25 17.25V34.75C42.25 35.0815 42.3817 35.3995 42.6161 35.6339C42.8505 35.8683 43.1685 36 43.5 36C43.8315 36 44.1495 35.8683 44.3839 35.6339C44.6183 35.3995 44.75 35.0815 44.75 34.75V17.25C44.75 16.9185 44.6183 16.6006 44.3839 16.3661C44.1494 16.1317 43.8315 16 43.5 16Z" fill="black"/>
</g>
<rect x="0.5" y="0.5" width="51" height="51" rx="9.5" stroke="#E6E6E6"/>
<defs>
<clipPath id="clip0_209_4452">
<rect width="40" height="40" fill="white" transform="translate(6 6)"/>
</clipPath>
</defs>
</svg>
