<svg width="53" height="53" viewBox="0 0 53 53" fill="none" xmlns="http://www.w3.org/2000/svg">
<path d="M26.3906 9.83301C23.0942 9.83301 19.8719 10.8105 17.131 12.6418C14.3902 14.4732 12.254 17.0762 10.9926 20.1216C9.7311 23.1671 9.40104 26.5182 10.0441 29.7512C10.6872 32.9842 12.2746 35.9539 14.6054 38.2848C16.9363 40.6157 19.906 42.203 23.139 42.8461C26.3721 43.4892 29.7232 43.1591 32.7686 41.8977C35.814 40.6362 38.417 38.5 40.2484 35.7592C42.0797 33.0184 43.0572 29.796 43.0572 26.4997C43.0574 24.3109 42.6264 22.1436 41.7889 20.1214C40.9514 18.0992 39.7237 16.2618 38.1761 14.7142C36.6284 13.1665 34.791 11.9388 32.7688 11.1013C30.7466 10.2638 28.5793 9.83283 26.3906 9.83301ZM31.6897 35.0871C31.6273 35.2427 31.5324 35.3831 31.4113 35.499C31.2903 35.6148 31.1458 35.7035 30.9877 35.759C30.8295 35.8144 30.6613 35.8355 30.4944 35.8206C30.3275 35.8058 30.1656 35.7554 30.0197 35.673L25.4953 32.1573L22.5914 34.8363C22.524 34.8861 22.4452 34.9182 22.3622 34.9295C22.2792 34.9408 22.1947 34.9311 22.1164 34.9012L22.6731 29.9205L22.6909 29.9346L22.7023 29.8363C22.7023 29.8363 30.844 22.4238 31.1756 22.1079C31.5114 21.7929 31.4006 21.7246 31.4006 21.7246C31.4197 21.3404 30.7981 21.7246 30.7981 21.7246L20.0106 28.6647L15.5181 27.1347C15.5181 27.1347 14.8281 26.8872 14.7631 26.343C14.6947 25.803 15.5406 25.5097 15.5406 25.5097L33.4022 18.4138C33.4022 18.4138 34.8706 17.7596 34.8706 18.843L31.6897 35.0871Z" fill="white"/>
<rect x="0.900024" y="1" width="51" height="51" rx="9.5" stroke="white"/>
</svg>
