<svg width="53" height="52" viewBox="0 0 53 52" fill="none" xmlns="http://www.w3.org/2000/svg">
<path d="M26.3906 9.33301C23.0942 9.33301 19.8719 10.3105 17.131 12.1418C14.3902 13.9732 12.254 16.5762 10.9926 19.6216C9.7311 22.6671 9.40104 26.0182 10.0441 29.2512C10.6872 32.4842 12.2746 35.4539 14.6054 37.7848C16.9363 40.1157 19.906 41.703 23.139 42.3461C26.3721 42.9892 29.7232 42.6591 32.7686 41.3977C35.814 40.1362 38.417 38 40.2484 35.2592C42.0797 32.5184 43.0572 29.296 43.0572 25.9997C43.0574 23.8109 42.6264 21.6436 41.7889 19.6214C40.9514 17.5992 39.7237 15.7618 38.1761 14.2142C36.6284 12.6665 34.791 11.4388 32.7688 10.6013C30.7466 9.7638 28.5793 9.33283 26.3906 9.33301ZM31.6897 34.5871C31.6273 34.7427 31.5324 34.8831 31.4113 34.999C31.2903 35.1148 31.1458 35.2035 30.9877 35.259C30.8295 35.3144 30.6613 35.3355 30.4944 35.3206C30.3275 35.3058 30.1656 35.2554 30.0197 35.173L25.4953 31.6573L22.5914 34.3363C22.524 34.3861 22.4452 34.4182 22.3622 34.4295C22.2792 34.4408 22.1947 34.4311 22.1164 34.4012L22.6731 29.4205L22.6909 29.4346L22.7023 29.3363C22.7023 29.3363 30.844 21.9238 31.1756 21.6079C31.5114 21.2929 31.4006 21.2246 31.4006 21.2246C31.4197 20.8404 30.7981 21.2246 30.7981 21.2246L20.0106 28.1647L15.5181 26.6347C15.5181 26.6347 14.8281 26.3872 14.7631 25.843C14.6947 25.303 15.5406 25.0097 15.5406 25.0097L33.4022 17.9138C33.4022 17.9138 34.8706 17.2596 34.8706 18.343L31.6897 34.5871Z" fill="black"/>
<rect x="0.900024" y="0.5" width="51" height="51" rx="9.5" stroke="#E6E6E6"/>
</svg>
