<svg width="53" height="53" viewBox="0 0 53 53" fill="none" xmlns="http://www.w3.org/2000/svg">
<path d="M45.3685 14.9486C44.0017 15.5558 42.5333 15.9642 40.9921 16.1486C42.5661 15.2058 43.7729 13.7134 44.3413 11.9338C42.8701 12.8066 41.2393 13.4406 39.5021 13.7834C38.1125 12.3022 36.1329 11.3766 33.9417 11.3766C29.0985 11.3118 25.3749 16.0434 26.5209 20.7306C20.1893 20.4134 14.5761 17.3798 10.8169 12.769C8.76526 16.1146 9.93006 20.899 13.1753 22.9414C11.9269 22.9014 10.7513 22.5586 9.72446 21.9886C9.67686 25.7106 12.3173 28.853 15.8361 29.5542C14.7549 29.8558 13.5093 29.903 12.3953 29.6854C13.3653 32.7118 16.1789 34.9158 19.5125 34.977C16.4985 37.3854 12.2789 38.641 8.23206 38.1322C24.5049 48.147 42.4941 35.0262 41.5653 18.8918C43.0545 17.8166 44.3473 16.4754 45.3685 14.9486Z" fill="white"/>
<rect x="1.30005" y="1" width="51" height="51" rx="9.5" stroke="white"/>
</svg>
