<svg width="53" height="52" viewBox="0 0 53 52" fill="none" xmlns="http://www.w3.org/2000/svg">
<path d="M45.3684 14.4486C44.0016 15.0558 42.5332 15.4642 40.992 15.6486C42.566 14.7058 43.7728 13.2134 44.3412 11.4338C42.87 12.3066 41.2392 12.9406 39.502 13.2834C38.1124 11.8022 36.1328 10.8766 33.9416 10.8766C29.0984 10.8118 25.3748 15.5434 26.5208 20.2306C20.1892 19.9134 14.576 16.8798 10.8168 12.269C8.76519 15.6146 9.92999 20.399 13.1752 22.4414C11.9268 22.4014 10.7512 22.0586 9.72439 21.4886C9.67679 25.2106 12.3172 28.353 15.836 29.0542C14.7548 29.3558 13.5092 29.403 12.3952 29.1854C13.3652 32.2118 16.1788 34.4158 19.5124 34.477C16.4984 36.8854 12.2788 38.141 8.23199 37.6322C24.5048 47.647 42.494 34.5262 41.5652 18.3918C43.0544 17.3166 44.3472 15.9754 45.3684 14.4486Z" fill="#292929"/>
<rect x="1.29999" y="0.5" width="51" height="51" rx="9.5" stroke="#E6E6E6"/>
</svg>
