<svg width="53" height="53" viewBox="0 0 53 53" fill="none" xmlns="http://www.w3.org/2000/svg">
<g clip-path="url(#clip0_209_4367)">
<path d="M19.9331 46.5003C23.6131 46.5003 26.5998 43.5137 26.5998 39.8337V33.167H19.9331C16.2531 33.167 13.2665 36.1537 13.2665 39.8337C13.2665 43.5137 16.2531 46.5003 19.9331 46.5003Z" fill="white"/>
<path d="M13.2665 26.4997C13.2665 22.8197 16.2531 19.833 19.9331 19.833H26.5998V33.1663H19.9331C16.2531 33.1663 13.2665 30.1797 13.2665 26.4997Z" fill="white"/>
<path d="M13.2665 13.1667C13.2665 9.48667 16.2531 6.5 19.9331 6.5H26.5998V19.8333H19.9331C16.2531 19.8333 13.2665 16.8467 13.2665 13.1667Z" fill="white"/>
<path d="M26.5999 6.5H33.2665C36.9465 6.5 39.9332 9.48667 39.9332 13.1667C39.9332 16.8467 36.9465 19.8333 33.2665 19.8333H26.5999V6.5Z" fill="white"/>
<path d="M39.9332 26.4997C39.9332 30.1797 36.9465 33.1663 33.2665 33.1663C29.5865 33.1663 26.5999 30.1797 26.5999 26.4997C26.5999 22.8197 29.5865 19.833 33.2665 19.833C36.9465 19.833 39.9332 22.8197 39.9332 26.4997Z" fill="white"/>
</g>
<rect x="1.09998" y="1" width="51" height="51" rx="9.5" stroke="white"/>
<defs>
<clipPath id="clip0_209_4367">
<rect width="40" height="40" fill="white" transform="translate(6.59998 6.5)"/>
</clipPath>
</defs>
</svg>
