<svg width="52" height="52" viewBox="0 0 52 52" fill="none" xmlns="http://www.w3.org/2000/svg">
<path d="M36.1408 13.5801C33.1008 13.6733 33.1016 18.0469 36.1408 18.1393C39.1808 18.0461 39.18 13.6725 36.1408 13.5801ZM26 16.2193C20.612 16.2193 16.2444 20.5985 16.2444 26.0005C16.7584 38.9753 35.2432 38.9717 35.7552 26.0005C35.7556 20.5985 31.3876 16.2193 26 16.2193ZM26 32.3497C22.5028 32.3497 19.6676 29.5069 19.6676 26.0005C20.0012 17.5785 32.0004 17.5805 32.3328 26.0005C32.3324 29.5073 29.4972 32.3497 26 32.3497Z" fill="#292929"/>
<path d="M44.8832 18.1673C44.7424 11.5005 40.5008 7.25645 33.8324 7.11685C32.2312 6.96245 19.7696 6.95965 18.1672 7.11685C11.5004 7.25765 7.2564 11.4993 7.1168 18.1677C6.9624 19.7665 6.9592 32.2321 7.1168 33.8329C7.2412 40.4781 11.5212 44.7593 18.1672 44.8833C19.7684 45.0393 32.23 45.0393 33.8324 44.8833C35.8544 44.7909 37.2356 44.4697 38.444 44.0001C42.6788 42.3085 44.748 38.5457 44.8832 33.8325C45.0376 32.2313 45.0404 19.7697 44.8832 18.1673ZM33.6764 41.4637C32.1008 41.6141 19.9 41.6165 18.3232 41.4637C16.4712 41.3793 15.4652 41.0697 14.7956 40.8097C9.016 38.1289 10.808 32.7077 10.5356 25.2665C10.5416 23.5381 10.532 20.0521 10.536 18.3237C10.7668 13.1709 13.1936 10.7853 18.3232 10.5365C19.9008 10.3861 32.0984 10.3837 33.6764 10.5365C38.8308 10.7673 41.214 13.1941 41.4636 18.3233C41.5656 19.5549 41.6396 26.2781 41.4636 29.6805C41.6536 36.0709 41.3624 41.0889 33.6764 41.4637Z" fill="#292929"/>
<rect x="0.5" y="0.5" width="51" height="51" rx="9.5" stroke="#E6E6E6"/>
</svg>
